STARTFONT 2.1
FONT -Monotype-Rockwell-Regular-R-Normal--18-180-72-72-P-87-iso8859-1
SIZE 18 72 72
FONTBOUNDINGBOX 20 22 -1 -4

STARTPROPERTIES 22
FOUNDRY "Monotype"
FAMILY_NAME "Rockwell"
WEIGHT_NAME "Regular"
SLANT "R"
SETWIDTH_NAME "Normal"
ADD_STYLE_NAME ""
PIXEL_SIZE 18
POINT_SIZE 180
RESOLUTION_X 72
RESOLUTION_Y 72
SPACING "P"
AVERAGE_WIDTH 87
CHARSET_REGISTRY "iso8859"
CHARSET_ENCODING "1"
COPYRIGHT "Copyright (c) 1996 Monotype Typography Ltd."
CAP_HEIGHT 14
X_HEIGHT 10
WEIGHT 10
QUAD_WIDTH 12
DEFAULT_CHAR 32
FONT_DESCENT 4
FONT_ASCENT 18
ENDPROPERTIES

CHARS 191

STARTCHAR space
ENCODING 32
SWIDTH 250 0
DWIDTH 6 0
BBX 0 0 0 0
BITMAP
ENDCHAR

STARTCHAR exclam
ENCODING 33
SWIDTH 292 0
DWIDTH 6 0
BBX 2 13 2 0
BITMAP
C0
C0
C0
C0
C0
C0
C0
C0
C0
C0
00
C0
C0
ENDCHAR

STARTCHAR quotedbl
ENCODING 34
SWIDTH 406 0
DWIDTH 8 0
BBX 6 5 1 8
BITMAP
CC
CC
CC
CC
CC
ENDCHAR

STARTCHAR numbersign
ENCODING 35
SWIDTH 668 0
DWIDTH 13 0
BBX 11 13 1 0
BITMAP
18C0
18C0
18C0
FFE0
FFE0
3180
3180
3180
FFE0
FFE0
6300
6300
6300
ENDCHAR

STARTCHAR dollar
ENCODING 36
SWIDTH 542 0
DWIDTH 10 0
BBX 8 16 1 -2
BITMAP
18
7E
FF
DB
DB
F8
78
3C
1E
1F
DB
DB
FF
7E
18
18
ENDCHAR

STARTCHAR percent
ENCODING 37
SWIDTH 969 0
DWIDTH 18 0
BBX 16 13 1 0
BITMAP
780C
FC18
CC30
CC60
CC60
FCC0
799E
033F
0333
0633
0C33
183F
301E
ENDCHAR

STARTCHAR ampersand
ENCODING 38
SWIDTH 677 0
DWIDTH 13 0
BBX 12 13 1 0
BITMAP
1E00
3F00
3300
3600
1C00
3C00
6C70
C670
C6C0
C380
C380
7FE0
3CE0
ENDCHAR

STARTCHAR quoteright
ENCODING 39
SWIDTH 292 0
DWIDTH 6 0
BBX 2 5 2 8
BITMAP
C0
C0
40
C0
80
ENDCHAR

STARTCHAR parenleft
ENCODING 40
SWIDTH 375 0
DWIDTH 7 0
BBX 5 17 1 -4
BITMAP
08
18
30
60
40
C0
C0
C0
C0
C0
C0
C0
60
60
30
18
08
ENDCHAR

STARTCHAR parenright
ENCODING 41
SWIDTH 375 0
DWIDTH 7 0
BBX 5 17 1 -4
BITMAP
80
C0
60
30
10
18
18
18
18
18
18
18
30
30
60
C0
80
ENDCHAR

STARTCHAR asterisk
ENCODING 42
SWIDTH 521 0
DWIDTH 10 0
BBX 8 8 1 5
BITMAP
18
18
CB
EF
18
34
66
66
ENDCHAR

STARTCHAR plus
ENCODING 43
SWIDTH 667 0
DWIDTH 13 0
BBX 10 10 1 1
BITMAP
0C00
0C00
0C00
0C00
FFC0
FFC0
0C00
0C00
0C00
0C00
ENDCHAR

STARTCHAR comma
ENCODING 44
SWIDTH 292 0
DWIDTH 6 0
BBX 2 5 2 -3
BITMAP
C0
C0
40
C0
80
ENDCHAR

STARTCHAR minus
ENCODING 45
SWIDTH 667 0
DWIDTH 13 0
BBX 10 2 1 5
BITMAP
FFC0
FFC0
ENDCHAR

STARTCHAR period
ENCODING 46
SWIDTH 292 0
DWIDTH 6 0
BBX 2 2 2 0
BITMAP
C0
C0
ENDCHAR

STARTCHAR slash
ENCODING 47
SWIDTH 438 0
DWIDTH 8 0
BBX 7 13 1 0
BITMAP
02
06
04
0C
08
18
10
30
20
60
40
C0
80
ENDCHAR

STARTCHAR zero
ENCODING 48
SWIDTH 542 0
DWIDTH 10 0
BBX 8 13 1 0
BITMAP
3C
7E
E7
C3
C3
C3
C3
C3
C3
C3
E7
7E
3C
ENDCHAR

STARTCHAR one
ENCODING 49
SWIDTH 542 0
DWIDTH 10 0
BBX 4 13 3 0
BITMAP
E0
E0
60
60
60
60
60
60
60
60
60
F0
F0
ENDCHAR

STARTCHAR two
ENCODING 50
SWIDTH 542 0
DWIDTH 10 0
BBX 8 13 1 0
BITMAP
3C
7E
C3
C3
C3
06
0C
18
33
63
C3
FF
FF
ENDCHAR

STARTCHAR three
ENCODING 51
SWIDTH 542 0
DWIDTH 10 0
BBX 9 13 0 0
BITMAP
1E00
3F00
6180
6180
0180
0F00
0F00
0180
C180
C180
6380
7F00
1E00
ENDCHAR

STARTCHAR four
ENCODING 52
SWIDTH 542 0
DWIDTH 10 0
BBX 9 13 0 0
BITMAP
0600
0E00
0E00
1E00
3600
6600
6600
C600
FF80
7F80
0600
0F00
0F00
ENDCHAR

STARTCHAR five
ENCODING 53
SWIDTH 542 0
DWIDTH 10 0
BBX 9 13 1 0
BITMAP
7F00
7F00
6300
6000
7E00
7F00
3380
0180
C180
C180
6380
7F00
1E00
ENDCHAR

STARTCHAR six
ENCODING 54
SWIDTH 542 0
DWIDTH 10 0
BBX 8 13 1 0
BITMAP
3C
7E
E7
C3
C0
DC
FE
E7
C3
C3
E7
7E
3C
ENDCHAR

STARTCHAR seven
ENCODING 55
SWIDTH 542 0
DWIDTH 10 0
BBX 8 13 1 0
BITMAP
FF
FF
C6
06
0C
0C
0C
18
18
18
18
3C
3C
ENDCHAR

STARTCHAR eight
ENCODING 56
SWIDTH 542 0
DWIDTH 10 0
BBX 8 13 1 0
BITMAP
3C
7E
E7
C3
E7
7E
3C
7E
E7
C3
E7
7E
3C
ENDCHAR

STARTCHAR nine
ENCODING 57
SWIDTH 542 0
DWIDTH 10 0
BBX 8 13 1 0
BITMAP
3C
7E
E7
C3
C3
E7
7F
3B
03
C3
E7
7E
3C
ENDCHAR

STARTCHAR colon
ENCODING 58
SWIDTH 292 0
DWIDTH 6 0
BBX 2 9 2 0
BITMAP
C0
C0
00
00
00
00
00
C0
C0
ENDCHAR

STARTCHAR semicolon
ENCODING 59
SWIDTH 292 0
DWIDTH 6 0
BBX 2 12 2 -3
BITMAP
C0
C0
00
00
00
00
00
C0
C0
40
C0
80
ENDCHAR

STARTCHAR less
ENCODING 60
SWIDTH 667 0
DWIDTH 13 0
BBX 10 9 1 2
BITMAP
01C0
0780
1E00
7800
E000
7800
1E00
0780
01C0
ENDCHAR

STARTCHAR equal
ENCODING 61
SWIDTH 667 0
DWIDTH 13 0
BBX 10 6 1 3
BITMAP
FFC0
FFC0
0000
0000
FFC0
FFC0
ENDCHAR

STARTCHAR greater
ENCODING 62
SWIDTH 667 0
DWIDTH 13 0
BBX 10 9 2 2
BITMAP
E000
7800
1E00
0780
01C0
0780
1E00
7800
E000
ENDCHAR

STARTCHAR question
ENCODING 63
SWIDTH 469 0
DWIDTH 9 0
BBX 7 13 1 0
BITMAP
7C
FE
C6
C6
06
1E
3C
30
30
30
00
30
30
ENDCHAR

STARTCHAR at
ENCODING 64
SWIDTH 1010 0
DWIDTH 19 0
BBX 17 19 1 -4
BITMAP
01F800
070E00
0C0300
180100
300180
21EC80
63F880
461880
C61880
8C1880
8C3180
8C3100
8C7300
CFF600
479C00
600180
300300
1C0E00
07F800
ENDCHAR

STARTCHAR A
ENCODING 65
SWIDTH 698 0
DWIDTH 13 0
BBX 13 13 0 0
BITMAP
1FC0
1FC0
0D80
0D80
18C0
18C0
18C0
3FE0
3FE0
6030
6030
F078
F078
ENDCHAR

STARTCHAR B
ENCODING 66
SWIDTH 583 0
DWIDTH 11 0
BBX 9 13 1 0
BITMAP
FE00
FF00
6300
6300
6700
7E00
7F00
6380
6180
6180
6380
FF00
FE00
ENDCHAR

STARTCHAR C
ENCODING 67
SWIDTH 760 0
DWIDTH 14 0
BBX 12 13 1 0
BITMAP
0FB0
3FF0
7070
6030
E000
C000
C000
C000
E000
6030
7070
3FE0
0F80
ENDCHAR

STARTCHAR D
ENCODING 68
SWIDTH 729 0
DWIDTH 14 0
BBX 12 13 1 0
BITMAP
FF00
FFC0
61E0
6060
6070
6030
6030
6030
6070
6060
61E0
FFC0
FF00
ENDCHAR

STARTCHAR E
ENCODING 69
SWIDTH 625 0
DWIDTH 12 0
BBX 10 13 1 0
BITMAP
FFC0
FFC0
60C0
60C0
6000
7F00
7F00
6000
6000
60C0
60C0
FFC0
FFC0
ENDCHAR

STARTCHAR F
ENCODING 70
SWIDTH 552 0
DWIDTH 10 0
BBX 9 13 1 0
BITMAP
FF80
FF80
6180
6180
6000
7E00
7E00
6000
6000
6000
6000
F000
F000
ENDCHAR

STARTCHAR G
ENCODING 71
SWIDTH 802 0
DWIDTH 15 0
BBX 13 13 1 0
BITMAP
0FB0
3FF0
7070
6030
E000
C000
C0F8
C0F8
E038
6030
7070
3FE0
0F80
ENDCHAR

STARTCHAR H
ENCODING 72
SWIDTH 708 0
DWIDTH 13 0
BBX 11 13 1 0
BITMAP
F1E0
F1E0
60C0
60C0
60C0
7FC0
7FC0
60C0
60C0
60C0
60C0
F1E0
F1E0
ENDCHAR

STARTCHAR I
ENCODING 73
SWIDTH 313 0
DWIDTH 6 0
BBX 4 13 1 0
BITMAP
F0
F0
60
60
60
60
60
60
60
60
60
F0
F0
ENDCHAR

STARTCHAR J
ENCODING 74
SWIDTH 313 0
DWIDTH 6 0
BBX 5 17 0 -4
BITMAP
78
78
30
30
30
30
30
30
30
30
30
30
30
30
30
F0
E0
ENDCHAR

STARTCHAR K
ENCODING 75
SWIDTH 625 0
DWIDTH 12 0
BBX 11 13 1 0
BITMAP
F3E0
F3E0
6180
6300
6600
6C00
7800
7C00
6600
6300
6180
F3E0
F3E0
ENDCHAR

STARTCHAR L
ENCODING 76
SWIDTH 521 0
DWIDTH 10 0
BBX 8 13 1 0
BITMAP
F0
F0
60
60
60
60
60
63
63
63
63
FF
FF
ENDCHAR

STARTCHAR M
ENCODING 77
SWIDTH 875 0
DWIDTH 17 0
BBX 15 13 1 0
BITMAP
F83E
F83E
783C
6C6C
6C6C
6C6C
66CC
66CC
66CC
638C
638C
F11E
F11E
ENDCHAR

STARTCHAR N
ENCODING 78
SWIDTH 719 0
DWIDTH 14 0
BBX 12 13 1 0
BITMAP
F0F0
F8F0
7860
6C60
6C60
6660
6660
6360
6360
61E0
61E0
F0E0
F0E0
ENDCHAR

STARTCHAR O
ENCODING 79
SWIDTH 802 0
DWIDTH 15 0
BBX 13 13 1 0
BITMAP
0F80
3FE0
7070
6030
E038
C018
C018
C018
E038
6030
7070
3FE0
0F80
ENDCHAR

STARTCHAR P
ENCODING 80
SWIDTH 573 0
DWIDTH 11 0
BBX 9 13 1 0
BITMAP
FE00
FF00
6380
6180
6180
6380
7F00
7E00
6000
6000
6000
F000
F000
ENDCHAR

STARTCHAR Q
ENCODING 81
SWIDTH 802 0
DWIDTH 15 0
BBX 13 16 1 -3
BITMAP
0F80
3FE0
7070
6030
E038
C018
C018
C018
E038
6030
7070
3FE0
0F80
0F00
13E0
00C0
ENDCHAR

STARTCHAR R
ENCODING 82
SWIDTH 604 0
DWIDTH 11 0
BBX 10 13 1 0
BITMAP
FE00
FF00
6380
6180
6380
7F00
7E00
6600
6600
6300
6300
F1C0
F1C0
ENDCHAR

STARTCHAR S
ENCODING 83
SWIDTH 531 0
DWIDTH 10 0
BBX 8 13 1 0
BITMAP
7B
FF
C7
C3
E0
7C
3E
07
C3
C3
E7
FE
DC
ENDCHAR

STARTCHAR T
ENCODING 84
SWIDTH 573 0
DWIDTH 11 0
BBX 10 13 0 0
BITMAP
FFC0
FFC0
CCC0
CCC0
CCC0
0C00
0C00
0C00
0C00
0C00
0C00
1E00
1E00
ENDCHAR

STARTCHAR U
ENCODING 85
SWIDTH 677 0
DWIDTH 13 0
BBX 11 13 1 0
BITMAP
F1E0
F1E0
60C0
60C0
60C0
60C0
60C0
60C0
60C0
60C0
71C0
3F80
1F00
ENDCHAR

STARTCHAR V
ENCODING 86
SWIDTH 708 0
DWIDTH 13 0
BBX 12 13 0 0
BITMAP
F9F0
F9F0
30C0
30C0
30C0
1980
1980
1980
1980
0F00
0F00
0600
0600
ENDCHAR

STARTCHAR W
ENCODING 87
SWIDTH 1000 0
DWIDTH 19 0
BBX 20 13 -1 0
BITMAP
F9F9F0
F9F9F0
3060C0
3060C0
30F0C0
18F180
18F180
199980
0D9B00
0F0F00
0F0F00
060600
060600
ENDCHAR

STARTCHAR X
ENCODING 88
SWIDTH 656 0
DWIDTH 12 0
BBX 12 13 0 0
BITMAP
F9F0
F9F0
30C0
1980
1980
0F00
0600
0F00
1980
1980
30C0
F9F0
F9F0
ENDCHAR

STARTCHAR Y
ENCODING 89
SWIDTH 646 0
DWIDTH 12 0
BBX 12 13 0 0
BITMAP
F9F0
F9F0
30C0
1980
1980
0F00
0F00
0600
0600
0600
0600
0F00
0F00
ENDCHAR

STARTCHAR Z
ENCODING 90
SWIDTH 563 0
DWIDTH 11 0
BBX 9 13 1 0
BITMAP
FF80
FF80
C380
C700
0600
0E00
1C00
3800
3000
7180
E180
FF80
FF80
ENDCHAR

STARTCHAR bracketleft
ENCODING 91
SWIDTH 375 0
DWIDTH 7 0
BBX 4 17 2 -4
BITMAP
F0
F0
C0
C0
C0
C0
C0
C0
C0
C0
C0
C0
C0
C0
C0
F0
F0
ENDCHAR

STARTCHAR backslash
ENCODING 92
SWIDTH 438 0
DWIDTH 8 0
BBX 8 13 0 0
BITMAP
C0
C0
60
60
30
30
18
18
0C
0C
06
06
03
ENDCHAR

STARTCHAR bracketright
ENCODING 93
SWIDTH 375 0
DWIDTH 7 0
BBX 4 17 1 -4
BITMAP
F0
F0
30
30
30
30
30
30
30
30
30
30
30
30
30
F0
F0
ENDCHAR

STARTCHAR asciicircum
ENCODING 94
SWIDTH 469 0
DWIDTH 9 0
BBX 7 7 1 6
BITMAP
10
38
28
6C
44
C6
82
ENDCHAR

STARTCHAR underscore
ENCODING 95
SWIDTH 500 0
DWIDTH 10 0
BBX 10 2 0 -3
BITMAP
FFC0
FFC0
ENDCHAR

STARTCHAR quoteleft
ENCODING 96
SWIDTH 292 0
DWIDTH 6 0
BBX 2 5 2 8
BITMAP
40
C0
80
C0
C0
ENDCHAR

STARTCHAR a
ENCODING 97
SWIDTH 531 0
DWIDTH 10 0
BBX 8 9 1 0
BITMAP
7C
FE
46
1E
7E
E6
CE
FF
77
ENDCHAR

STARTCHAR b
ENCODING 98
SWIDTH 646 0
DWIDTH 12 0
BBX 10 13 1 0
BITMAP
E000
E000
6000
6000
6E00
7F80
7180
60C0
60C0
60C0
7180
FF80
EE00
ENDCHAR

STARTCHAR c
ENCODING 99
SWIDTH 521 0
DWIDTH 10 0
BBX 8 9 1 0
BITMAP
1F
7F
63
C0
C0
C0
63
7F
1C
ENDCHAR

STARTCHAR d
ENCODING 100
SWIDTH 625 0
DWIDTH 12 0
BBX 10 13 1 0
BITMAP
0380
0380
0180
0180
1D80
7F80
6380
C180
C180
C180
6380
7FC0
1DC0
ENDCHAR

STARTCHAR e
ENCODING 101
SWIDTH 573 0
DWIDTH 11 0
BBX 9 9 1 0
BITMAP
1C00
7F00
6300
FF80
FF80
C000
6300
7F00
1C00
ENDCHAR

STARTCHAR f
ENCODING 102
SWIDTH 292 0
DWIDTH 6 0
BBX 5 13 1 0
BITMAP
38
78
60
60
F0
F0
60
60
60
60
60
F0
F0
ENDCHAR

STARTCHAR g
ENCODING 103
SWIDTH 625 0
DWIDTH 12 0
BBX 10 13 1 -4
BITMAP
1DC0
7FC0
6380
C180
C180
C180
6380
7F80
1D80
0180
6300
7F00
3C00
ENDCHAR

STARTCHAR h
ENCODING 104
SWIDTH 573 0
DWIDTH 11 0
BBX 9 13 1 0
BITMAP
E000
E000
6000
6000
6E00
7F00
7300
6300
6300
6300
6300
F380
F380
ENDCHAR

STARTCHAR i
ENCODING 105
SWIDTH 292 0
DWIDTH 6 0
BBX 4 13 1 0
BITMAP
60
60
00
00
E0
E0
60
60
60
60
60
F0
F0
ENDCHAR

STARTCHAR j
ENCODING 106
SWIDTH 292 0
DWIDTH 6 0
BBX 4 17 0 -4
BITMAP
30
30
00
00
70
70
30
30
30
30
30
30
30
30
30
E0
C0
ENDCHAR

STARTCHAR k
ENCODING 107
SWIDTH 573 0
DWIDTH 11 0
BBX 10 13 1 0
BITMAP
E000
E000
6000
6000
6380
6380
6600
6C00
7800
6C00
6600
F3C0
F1C0
ENDCHAR

STARTCHAR l
ENCODING 108
SWIDTH 292 0
DWIDTH 6 0
BBX 4 13 1 0
BITMAP
E0
E0
60
60
60
60
60
60
60
60
60
F0
F0
ENDCHAR

STARTCHAR m
ENCODING 109
SWIDTH 865 0
DWIDTH 16 0
BBX 14 9 1 0
BITMAP
EE70
FFF8
7398
6318
6318
6318
6318
F39C
F39C
ENDCHAR

STARTCHAR n
ENCODING 110
SWIDTH 573 0
DWIDTH 11 0
BBX 9 9 1 0
BITMAP
EE00
FF00
7300
6300
6300
6300
6300
F380
F380
ENDCHAR

STARTCHAR o
ENCODING 111
SWIDTH 573 0
DWIDTH 11 0
BBX 9 9 1 0
BITMAP
1C00
7F00
6300
C180
C180
C180
6300
7F00
1C00
ENDCHAR

STARTCHAR p
ENCODING 112
SWIDTH 625 0
DWIDTH 12 0
BBX 10 13 1 -4
BITMAP
EE00
FF80
7180
60C0
60C0
60C0
7180
7F80
6E00
6000
6000
F000
F000
ENDCHAR

STARTCHAR q
ENCODING 113
SWIDTH 615 0
DWIDTH 12 0
BBX 10 13 1 -4
BITMAP
1DC0
7FC0
6380
C180
C180
C180
6380
7F80
1D80
0180
0180
03C0
03C0
ENDCHAR

STARTCHAR r
ENCODING 114
SWIDTH 417 0
DWIDTH 8 0
BBX 6 9 1 0
BITMAP
EC
FC
70
60
60
60
60
F0
F0
ENDCHAR

STARTCHAR s
ENCODING 115
SWIDTH 458 0
DWIDTH 9 0
BBX 7 9 1 0
BITMAP
7E
FE
C6
F0
7C
1E
C6
FE
FC
ENDCHAR

STARTCHAR t
ENCODING 116
SWIDTH 302 0
DWIDTH 6 0
BBX 5 12 0 0
BITMAP
20
60
60
F0
F0
60
60
60
60
60
78
38
ENDCHAR

STARTCHAR u
ENCODING 117
SWIDTH 563 0
DWIDTH 11 0
BBX 9 9 1 0
BITMAP
E700
E700
6300
6300
6300
6300
6700
7F80
3B80
ENDCHAR

STARTCHAR v
ENCODING 118
SWIDTH 542 0
DWIDTH 10 0
BBX 11 9 -1 0
BITMAP
FBE0
FBE0
3180
3180
1B00
1B00
0E00
0E00
0400
ENDCHAR

STARTCHAR w
ENCODING 119
SWIDTH 771 0
DWIDTH 15 0
BBX 17 9 -1 0
BITMAP
FBEF80
FBEF80
31C600
314600
1B6C00
1B6C00
0E3800
0E3800
041000
ENDCHAR

STARTCHAR x
ENCODING 120
SWIDTH 552 0
DWIDTH 10 0
BBX 10 9 0 0
BITMAP
FBC0
FBC0
3300
1E00
0C00
1E00
3300
F7C0
F7C0
ENDCHAR

STARTCHAR y
ENCODING 121
SWIDTH 563 0
DWIDTH 11 0
BBX 11 13 0 -4
BITMAP
FBE0
FBE0
3180
3180
1B00
1B00
0E00
0E00
0400
0C00
0C00
3800
3800
ENDCHAR

STARTCHAR z
ENCODING 122
SWIDTH 448 0
DWIDTH 9 0
BBX 7 9 1 0
BITMAP
FE
FE
CC
18
18
30
66
FE
FE
ENDCHAR

STARTCHAR braceleft
ENCODING 123
SWIDTH 333 0
DWIDTH 6 0
BBX 6 17 0 -4
BITMAP
0C
1C
30
30
30
30
30
60
C0
60
30
30
30
30
30
1C
0C
ENDCHAR

STARTCHAR bar
ENCODING 124
SWIDTH 527 0
DWIDTH 10 0
BBX 2 17 4 -4
BITMAP
C0
C0
C0
C0
C0
C0
C0
C0
C0
C0
C0
C0
C0
C0
C0
C0
C0
ENDCHAR

STARTCHAR braceright
ENCODING 125
SWIDTH 333 0
DWIDTH 6 0
BBX 6 17 0 -4
BITMAP
C0
E0
30
30
30
30
30
18
0C
18
30
30
30
30
30
E0
C0
ENDCHAR

STARTCHAR asciitilde
ENCODING 126
SWIDTH 583 0
DWIDTH 11 0
BBX 9 3 1 5
BITMAP
7080
FF80
8700
ENDCHAR

STARTCHAR space
ENCODING 160
SWIDTH 250 0
DWIDTH 5 0
BBX 0 0 0 0
BITMAP
ENDCHAR

STARTCHAR exclamdown
ENCODING 161
SWIDTH 292 0
DWIDTH 6 0
BBX 2 13 2 -4
BITMAP
C0
C0
00
C0
C0
C0
C0
C0
C0
C0
C0
C0
C0
ENDCHAR

STARTCHAR cent
ENCODING 162
SWIDTH 521 0
DWIDTH 10 0
BBX 8 17 1 -4
BITMAP
01
02
02
04
1F
7F
6B
C8
C8
D0
73
7F
3C
20
20
40
40
ENDCHAR

STARTCHAR sterling
ENCODING 163
SWIDTH 542 0
DWIDTH 10 0
BBX 10 13 0 0
BITMAP
0E00
1F00
3180
3180
3000
1800
7F00
7F00
0C00
0C00
7C40
DFC0
F380
ENDCHAR

STARTCHAR currency
ENCODING 164
SWIDTH 667 0
DWIDTH 13 0
BBX 9 9 2 2
BITMAP
DD80
FF80
6300
C180
C180
C180
6300
FF80
DD80
ENDCHAR

STARTCHAR yen
ENCODING 165
SWIDTH 646 0
DWIDTH 12 0
BBX 12 13 0 0
BITMAP
F9F0
F9F0
30C0
1980
1980
FFF0
0F00
0600
FFF0
0600
0600
1F80
1F80
ENDCHAR

STARTCHAR brokenbar
ENCODING 166
SWIDTH 527 0
DWIDTH 10 0
BBX 2 17 4 -4
BITMAP
C0
C0
C0
C0
C0
C0
C0
00
00
00
C0
C0
C0
C0
C0
C0
C0
ENDCHAR

STARTCHAR section
ENCODING 167
SWIDTH 479 0
DWIDTH 9 0
BBX 8 17 0 -4
BITMAP
38
7E
C6
C6
E0
78
DC
C6
C3
63
3B
1E
07
63
63
7E
1C
ENDCHAR

STARTCHAR dieresis
ENCODING 168
SWIDTH 333 0
DWIDTH 6 0
BBX 5 2 0 11
BITMAP
D8
D8
ENDCHAR

STARTCHAR copyright
ENCODING 169
SWIDTH 740 0
DWIDTH 14 0
BBX 13 13 0 0
BITMAP
0F80
38E0
6030
4790
CD98
9808
9808
9888
CD98
4710
6030
38E0
0F80
ENDCHAR

STARTCHAR ordfeminine
ENCODING 170
SWIDTH 344 0
DWIDTH 7 0
BBX 6 6 0 7
BITMAP
F0
18
78
D8
D8
6C
ENDCHAR

STARTCHAR guillemotleft
ENCODING 171
SWIDTH 479 0
DWIDTH 9 0
BBX 9 9 0 0
BITMAP
0880
1980
3300
6600
CC00
6600
3300
1980
0880
ENDCHAR

STARTCHAR logicalnot
ENCODING 172
SWIDTH 667 0
DWIDTH 13 0
BBX 10 6 1 3
BITMAP
FFC0
FFC0
00C0
00C0
00C0
00C0
ENDCHAR

STARTCHAR hyphen
ENCODING 173
SWIDTH 354 0
DWIDTH 7 0
BBX 5 2 1 3
BITMAP
F8
F8
ENDCHAR

STARTCHAR registered
ENCODING 174
SWIDTH 740 0
DWIDTH 14 0
BBX 13 13 0 0
BITMAP
0F80
38E0
6030
5F90
D8D8
98C8
9F88
9B08
D998
58D0
6030
38E0
0F80
ENDCHAR

STARTCHAR macron
ENCODING 175
SWIDTH 333 0
DWIDTH 6 0
BBX 6 2 0 10
BITMAP
FC
FC
ENDCHAR

STARTCHAR degree
ENCODING 176
SWIDTH 396 0
DWIDTH 8 0
BBX 6 6 1 7
BITMAP
78
CC
84
84
CC
78
ENDCHAR

STARTCHAR plusminus
ENCODING 177
SWIDTH 667 0
DWIDTH 13 0
BBX 10 13 1 0
BITMAP
0C00
0C00
0C00
0C00
FFC0
FFC0
0C00
0C00
0C00
0C00
0000
FFC0
FFC0
ENDCHAR

STARTCHAR twosuperior
ENCODING 178
SWIDTH 333 0
DWIDTH 6 0
BBX 5 7 1 6
BITMAP
70
D8
98
30
68
C8
F8
ENDCHAR

STARTCHAR threesuperior
ENCODING 179
SWIDTH 333 0
DWIDTH 6 0
BBX 6 7 0 6
BITMAP
38
6C
0C
38
0C
CC
78
ENDCHAR

STARTCHAR acute
ENCODING 180
SWIDTH 333 0
DWIDTH 6 0
BBX 5 3 1 9
BITMAP
38
70
C0
ENDCHAR

STARTCHAR mu
ENCODING 181
SWIDTH 552 0
DWIDTH 10 0
BBX 8 13 1 -4
BITMAP
C3
C3
C3
C3
C3
C3
C3
FF
DB
C0
C0
C0
C0
ENDCHAR

STARTCHAR paragraph
ENCODING 182
SWIDTH 542 0
DWIDTH 10 0
BBX 10 17 0 -4
BITMAP
3FC0
7FC0
F980
F980
F980
F980
F980
7980
1980
1980
1980
1980
1980
1980
1980
1980
1980
ENDCHAR

STARTCHAR periodcentered
ENCODING 183
SWIDTH 292 0
DWIDTH 6 0
BBX 2 2 2 5
BITMAP
C0
C0
ENDCHAR

STARTCHAR cedilla
ENCODING 184
SWIDTH 333 0
DWIDTH 6 0
BBX 4 4 1 -4
BITMAP
60
60
30
E0
ENDCHAR

STARTCHAR onesuperior
ENCODING 185
SWIDTH 333 0
DWIDTH 6 0
BBX 4 7 1 6
BITMAP
E0
60
60
60
60
60
F0
ENDCHAR

STARTCHAR ordmasculine
ENCODING 186
SWIDTH 375 0
DWIDTH 7 0
BBX 6 7 0 6
BITMAP
78
CC
CC
CC
CC
CC
78
ENDCHAR

STARTCHAR guillemotright
ENCODING 187
SWIDTH 479 0
DWIDTH 9 0
BBX 9 9 0 0
BITMAP
8800
CC00
6600
3300
1980
3300
6600
CC00
8800
ENDCHAR

STARTCHAR onequarter
ENCODING 188
SWIDTH 969 0
DWIDTH 18 0
BBX 13 13 1 0
BITMAP
E018
6030
6060
60C0
6180
6180
F330
0670
0CF0
19B0
19F8
3030
6030
ENDCHAR

STARTCHAR onehalf
ENCODING 189
SWIDTH 969 0
DWIDTH 18 0
BBX 13 13 2 0
BITMAP
E030
6060
60C0
60C0
6180
6300
F670
0CD8
0C98
1830
3068
60C8
C0F8
ENDCHAR

STARTCHAR threequarters
ENCODING 190
SWIDTH 969 0
DWIDTH 18 0
BBX 15 13 1 0
BITMAP
3806
6C0C
0C18
3830
0C60
CCC0
798C
019C
033C
066C
0C7E
180C
300C
ENDCHAR

STARTCHAR questiondown
ENCODING 191
SWIDTH 469 0
DWIDTH 9 0
BBX 7 13 1 -4
BITMAP
18
18
00
18
18
18
78
F0
C0
C6
C6
FE
7C
ENDCHAR

STARTCHAR Agrave
ENCODING 192
SWIDTH 698 0
DWIDTH 13 0
BBX 13 17 0 0
BITMAP
1C00
0E00
0300
0000
1FC0
1FC0
0D80
0D80
18C0
18C0
18C0
3FE0
3FE0
6030
6030
F078
F078
ENDCHAR

STARTCHAR Aacute
ENCODING 193
SWIDTH 698 0
DWIDTH 13 0
BBX 13 17 0 0
BITMAP
01C0
0380
0600
0000
1FC0
1FC0
0D80
0D80
18C0
18C0
18C0
3FE0
3FE0
6030
6030
F078
F078
ENDCHAR

STARTCHAR Acircumflex
ENCODING 194
SWIDTH 698 0
DWIDTH 13 0
BBX 13 17 0 0
BITMAP
0300
0780
0CC0
0000
1FC0
1FC0
0D80
0D80
18C0
18C0
18C0
3FE0
3FE0
6030
6030
F078
F078
ENDCHAR

STARTCHAR Atilde
ENCODING 195
SWIDTH 698 0
DWIDTH 13 0
BBX 13 17 0 0
BITMAP
0640
0FC0
0980
0000
1FC0
1FC0
0D80
0D80
18C0
18C0
18C0
3FE0
3FE0
6030
6030
F078
F078
ENDCHAR

STARTCHAR Adieresis
ENCODING 196
SWIDTH 698 0
DWIDTH 13 0
BBX 13 16 0 0
BITMAP
0D80
0D80
0000
1FC0
1FC0
0D80
0D80
18C0
18C0
18C0
3FE0
3FE0
6030
6030
F078
F078
ENDCHAR

STARTCHAR Aring
ENCODING 197
SWIDTH 698 0
DWIDTH 13 0
BBX 13 18 0 0
BITMAP
0300
0480
0480
0300
0000
1FC0
1FC0
0D80
0D80
18C0
18C0
18C0
3FE0
3FE0
6030
6030
F078
F078
ENDCHAR

STARTCHAR AE
ENCODING 198
SWIDTH 938 0
DWIDTH 18 0
BBX 18 13 0 0
BITMAP
07FFC0
07FFC0
0360C0
0660C0
066000
0FFF00
0FFF00
186000
186000
3060C0
3060C0
F8FFC0
F8FFC0
ENDCHAR

STARTCHAR Ccedilla
ENCODING 199
SWIDTH 760 0
DWIDTH 14 0
BBX 12 17 1 -4
BITMAP
0FB0
3FF0
7070
6030
E000
C000
C000
C000
E000
6030
7070
3FE0
0F80
0600
0600
0300
0E00
ENDCHAR

STARTCHAR Egrave
ENCODING 200
SWIDTH 625 0
DWIDTH 12 0
BBX 10 17 1 0
BITMAP
3800
1C00
0600
0000
FFC0
FFC0
60C0
60C0
6000
7F00
7F00
6000
6000
60C0
60C0
FFC0
FFC0
ENDCHAR

STARTCHAR Eacute
ENCODING 201
SWIDTH 625 0
DWIDTH 12 0
BBX 10 17 1 0
BITMAP
0380
0700
0C00
0000
FFC0
FFC0
60C0
60C0
6000
7F00
7F00
6000
6000
60C0
60C0
FFC0
FFC0
ENDCHAR

STARTCHAR Ecircumflex
ENCODING 202
SWIDTH 625 0
DWIDTH 12 0
BBX 10 17 1 0
BITMAP
0C00
1E00
3300
0000
FFC0
FFC0
60C0
60C0
6000
7F00
7F00
6000
6000
60C0
60C0
FFC0
FFC0
ENDCHAR

STARTCHAR Edieresis
ENCODING 203
SWIDTH 625 0
DWIDTH 12 0
BBX 10 16 1 0
BITMAP
1B00
1B00
0000
FFC0
FFC0
60C0
60C0
6000
7F00
7F00
6000
6000
60C0
60C0
FFC0
FFC0
ENDCHAR

STARTCHAR Igrave
ENCODING 204
SWIDTH 313 0
DWIDTH 6 0
BBX 5 17 0 0
BITMAP
E0
70
18
00
78
78
30
30
30
30
30
30
30
30
30
78
78
ENDCHAR

STARTCHAR Iacute
ENCODING 205
SWIDTH 313 0
DWIDTH 6 0
BBX 5 17 1 0
BITMAP
38
70
C0
00
F0
F0
60
60
60
60
60
60
60
60
60
F0
F0
ENDCHAR

STARTCHAR Icircumflex
ENCODING 206
SWIDTH 313 0
DWIDTH 6 0
BBX 6 17 0 0
BITMAP
30
78
CC
00
78
78
30
30
30
30
30
30
30
30
30
78
78
ENDCHAR

STARTCHAR Idieresis
ENCODING 207
SWIDTH 313 0
DWIDTH 6 0
BBX 5 16 1 0
BITMAP
D8
D8
00
F0
F0
60
60
60
60
60
60
60
60
60
F0
F0
ENDCHAR

STARTCHAR Eth
ENCODING 208
SWIDTH 729 0
DWIDTH 14 0
BBX 12 13 1 0
BITMAP
FF00
FFC0
61E0
6060
6070
6030
FC30
FC30
6070
6060
61E0
FFC0
FF00
ENDCHAR

STARTCHAR Ntilde
ENCODING 209
SWIDTH 719 0
DWIDTH 14 0
BBX 12 17 1 0
BITMAP
0C80
1F80
1300
0000
F0F0
F8F0
7860
6C60
6C60
6660
6660
6360
6360
61E0
61E0
F0E0
F0E0
ENDCHAR

STARTCHAR Ograve
ENCODING 210
SWIDTH 802 0
DWIDTH 15 0
BBX 13 17 1 0
BITMAP
0E00
0700
0180
0000
0F80
3FE0
7070
6030
E038
C018
C018
C018
E038
6030
7070
3FE0
0F80
ENDCHAR

STARTCHAR Oacute
ENCODING 211
SWIDTH 802 0
DWIDTH 15 0
BBX 13 17 1 0
BITMAP
01C0
0380
0600
0000
0F80
3FE0
7070
6030
E038
C018
C018
C018
E038
6030
7070
3FE0
0F80
ENDCHAR

STARTCHAR Ocircumflex
ENCODING 212
SWIDTH 802 0
DWIDTH 15 0
BBX 13 17 1 0
BITMAP
0300
0780
0CC0
0000
0F80
3FE0
7070
6030
E038
C018
C018
C018
E038
6030
7070
3FE0
0F80
ENDCHAR

STARTCHAR Otilde
ENCODING 213
SWIDTH 802 0
DWIDTH 15 0
BBX 13 17 1 0
BITMAP
0640
0FC0
0980
0000
0F80
3FE0
7070
6030
E038
C018
C018
C018
E038
6030
7070
3FE0
0F80
ENDCHAR

STARTCHAR Odieresis
ENCODING 214
SWIDTH 802 0
DWIDTH 15 0
BBX 13 16 1 0
BITMAP
0D80
0D80
0000
0F80
3FE0
7070
6030
E038
C018
C018
C018
E038
6030
7070
3FE0
0F80
ENDCHAR

STARTCHAR multiply
ENCODING 215
SWIDTH 668 0
DWIDTH 13 0
BBX 11 10 1 1
BITMAP
C060
60C0
3180
1B00
0E00
0E00
1B00
3180
60C0
C060
ENDCHAR

STARTCHAR Oslash
ENCODING 216
SWIDTH 802 0
DWIDTH 15 0
BBX 14 13 0 0
BITMAP
07CC
1FF8
3838
3078
70DC
618C
630C
660C
7C1C
3818
3838
7FF0
C7C0
ENDCHAR

STARTCHAR Ugrave
ENCODING 217
SWIDTH 677 0
DWIDTH 13 0
BBX 11 17 1 0
BITMAP
1C00
0E00
0300
0000
F1E0
F1E0
60C0
60C0
60C0
60C0
60C0
60C0
60C0
60C0
71C0
3F80
1F00
ENDCHAR

STARTCHAR Uacute
ENCODING 218
SWIDTH 677 0
DWIDTH 13 0
BBX 11 17 1 0
BITMAP
0380
0700
0C00
0000
F1E0
F1E0
60C0
60C0
60C0
60C0
60C0
60C0
60C0
60C0
71C0
3F80
1F00
ENDCHAR

STARTCHAR Ucircumflex
ENCODING 219
SWIDTH 677 0
DWIDTH 13 0
BBX 11 17 1 0
BITMAP
0600
0F00
1980
0000
F1E0
F1E0
60C0
60C0
60C0
60C0
60C0
60C0
60C0
60C0
71C0
3F80
1F00
ENDCHAR

STARTCHAR Udieresis
ENCODING 220
SWIDTH 677 0
DWIDTH 13 0
BBX 11 16 1 0
BITMAP
1B00
1B00
0000
F1E0
F1E0
60C0
60C0
60C0
60C0
60C0
60C0
60C0
60C0
71C0
3F80
1F00
ENDCHAR

STARTCHAR Yacute
ENCODING 221
SWIDTH 646 0
DWIDTH 12 0
BBX 12 17 0 0
BITMAP
0380
0700
0C00
0000
F9F0
F9F0
30C0
1980
1980
0F00
0F00
0600
0600
0600
0600
0F00
0F00
ENDCHAR

STARTCHAR Thorn
ENCODING 222
SWIDTH 573 0
DWIDTH 11 0
BBX 9 13 1 0
BITMAP
F000
F000
6000
7E00
7F00
6380
6180
6380
7F00
7E00
6000
F000
F000
ENDCHAR

STARTCHAR germandbls
ENCODING 223
SWIDTH 646 0
DWIDTH 12 0
BBX 10 13 1 0
BITMAP
1E00
3F00
6180
6180
6180
6700
6780
61C0
60C0
60C0
60C0
F780
F700
ENDCHAR

STARTCHAR agrave
ENCODING 224
SWIDTH 531 0
DWIDTH 10 0
BBX 8 13 1 0
BITMAP
70
38
0C
00
7C
FE
46
1E
7E
E6
CE
FF
77
ENDCHAR

STARTCHAR aacute
ENCODING 225
SWIDTH 531 0
DWIDTH 10 0
BBX 8 13 1 0
BITMAP
0E
1C
30
00
7C
FE
46
1E
7E
E6
CE
FF
77
ENDCHAR

STARTCHAR acircumflex
ENCODING 226
SWIDTH 531 0
DWIDTH 10 0
BBX 8 13 1 0
BITMAP
18
3C
66
00
7C
FE
46
1E
7E
E6
CE
FF
77
ENDCHAR

STARTCHAR atilde
ENCODING 227
SWIDTH 531 0
DWIDTH 10 0
BBX 8 13 1 0
BITMAP
32
7E
4C
00
7C
FE
46
1E
7E
E6
CE
FF
77
ENDCHAR

STARTCHAR adieresis
ENCODING 228
SWIDTH 531 0
DWIDTH 10 0
BBX 8 12 1 0
BITMAP
6C
6C
00
7C
FE
46
1E
7E
E6
CE
FF
77
ENDCHAR

STARTCHAR aring
ENCODING 229
SWIDTH 531 0
DWIDTH 10 0
BBX 8 14 1 0
BITMAP
18
24
24
18
00
7C
FE
46
1E
7E
E6
CE
FF
77
ENDCHAR

STARTCHAR ae
ENCODING 230
SWIDTH 885 0
DWIDTH 17 0
BBX 15 9 1 0
BITMAP
7E70
FFFC
478C
1FFE
7FFE
E700
C78C
FDFC
7870
ENDCHAR

STARTCHAR ccedilla
ENCODING 231
SWIDTH 521 0
DWIDTH 10 0
BBX 8 13 1 -4
BITMAP
1F
7F
63
C0
C0
C0
63
7F
1C
18
18
0C
38
ENDCHAR

STARTCHAR egrave
ENCODING 232
SWIDTH 573 0
DWIDTH 11 0
BBX 9 13 1 0
BITMAP
3800
1C00
0600
0000
1C00
7F00
6300
FF80
FF80
C000
6300
7F00
1C00
ENDCHAR

STARTCHAR eacute
ENCODING 233
SWIDTH 573 0
DWIDTH 11 0
BBX 9 13 1 0
BITMAP
0700
0E00
1800
0000
1C00
7F00
6300
FF80
FF80
C000
6300
7F00
1C00
ENDCHAR

STARTCHAR ecircumflex
ENCODING 234
SWIDTH 573 0
DWIDTH 11 0
BBX 9 13 1 0
BITMAP
0C00
1E00
3300
0000
1C00
7F00
6300
FF80
FF80
C000
6300
7F00
1C00
ENDCHAR

STARTCHAR edieresis
ENCODING 235
SWIDTH 573 0
DWIDTH 11 0
BBX 9 12 1 0
BITMAP
3600
3600
0000
1C00
7F00
6300
FF80
FF80
C000
6300
7F00
1C00
ENDCHAR

STARTCHAR igrave
ENCODING 236
SWIDTH 292 0
DWIDTH 6 0
BBX 5 13 0 0
BITMAP
E0
70
18
00
70
70
30
30
30
30
30
78
78
ENDCHAR

STARTCHAR iacute
ENCODING 237
SWIDTH 292 0
DWIDTH 6 0
BBX 5 13 1 0
BITMAP
38
70
C0
00
E0
E0
60
60
60
60
60
F0
F0
ENDCHAR

STARTCHAR icircumflex
ENCODING 238
SWIDTH 292 0
DWIDTH 6 0
BBX 6 13 0 0
BITMAP
30
78
CC
00
70
70
30
30
30
30
30
78
78
ENDCHAR

STARTCHAR idieresis
ENCODING 239
SWIDTH 292 0
DWIDTH 6 0
BBX 5 13 0 0
BITMAP
D8
D8
00
00
70
70
30
30
30
30
30
78
78
ENDCHAR

STARTCHAR eth
ENCODING 240
SWIDTH 573 0
DWIDTH 11 0
BBX 9 13 1 0
BITMAP
7180
1E00
3C00
4600
1F00
7F00
6300
C180
C180
C180
6300
7F00
1C00
ENDCHAR

STARTCHAR ntilde
ENCODING 241
SWIDTH 573 0
DWIDTH 11 0
BBX 9 13 1 0
BITMAP
3200
7E00
4C00
0000
EE00
FF00
7300
6300
6300
6300
6300
F380
F380
ENDCHAR

STARTCHAR ograve
ENCODING 242
SWIDTH 573 0
DWIDTH 11 0
BBX 9 13 1 0
BITMAP
3800
1C00
0600
0000
1C00
7F00
6300
C180
C180
C180
6300
7F00
1C00
ENDCHAR

STARTCHAR oacute
ENCODING 243
SWIDTH 573 0
DWIDTH 11 0
BBX 9 13 1 0
BITMAP
0700
0E00
1800
0000
1C00
7F00
6300
C180
C180
C180
6300
7F00
1C00
ENDCHAR

STARTCHAR ocircumflex
ENCODING 244
SWIDTH 573 0
DWIDTH 11 0
BBX 9 13 1 0
BITMAP
0C00
1E00
3300
0000
1C00
7F00
6300
C180
C180
C180
6300
7F00
1C00
ENDCHAR

STARTCHAR otilde
ENCODING 245
SWIDTH 573 0
DWIDTH 11 0
BBX 9 13 1 0
BITMAP
1900
3F00
2600
0000
1C00
7F00
6300
C180
C180
C180
6300
7F00
1C00
ENDCHAR

STARTCHAR odieresis
ENCODING 246
SWIDTH 573 0
DWIDTH 11 0
BBX 9 12 1 0
BITMAP
3600
3600
0000
1C00
7F00
6300
C180
C180
C180
6300
7F00
1C00
ENDCHAR

STARTCHAR divide
ENCODING 247
SWIDTH 668 0
DWIDTH 13 0
BBX 10 10 1 1
BITMAP
0C00
0C00
0000
0000
FFC0
FFC0
0000
0000
0C00
0C00
ENDCHAR

STARTCHAR oslash
ENCODING 248
SWIDTH 573 0
DWIDTH 11 0
BBX 9 9 1 0
BITMAP
1D80
7F00
6700
CD80
CD80
D980
7300
7F00
DC00
ENDCHAR

STARTCHAR ugrave
ENCODING 249
SWIDTH 563 0
DWIDTH 11 0
BBX 9 13 1 0
BITMAP
7000
3800
0C00
0000
E700
E700
6300
6300
6300
6300
6700
7F80
3B80
ENDCHAR

STARTCHAR uacute
ENCODING 250
SWIDTH 563 0
DWIDTH 11 0
BBX 9 13 1 0
BITMAP
0E00
1C00
3000
0000
E700
E700
6300
6300
6300
6300
6700
7F80
3B80
ENDCHAR

STARTCHAR ucircumflex
ENCODING 251
SWIDTH 563 0
DWIDTH 11 0
BBX 9 13 1 0
BITMAP
1800
3C00
6600
0000
E700
E700
6300
6300
6300
6300
6700
7F80
3B80
ENDCHAR

STARTCHAR udieresis
ENCODING 252
SWIDTH 563 0
DWIDTH 11 0
BBX 9 12 1 0
BITMAP
3600
3600
0000
E700
E700
6300
6300
6300
6300
6700
7F80
3B80
ENDCHAR

STARTCHAR yacute
ENCODING 253
SWIDTH 563 0
DWIDTH 11 0
BBX 11 17 0 -4
BITMAP
0700
0E00
1800
0000
FBE0
FBE0
3180
3180
1B00
1B00
0E00
0E00
0400
0C00
0C00
3800
3800
ENDCHAR

STARTCHAR thorn
ENCODING 254
SWIDTH 625 0
DWIDTH 12 0
BBX 10 17 1 -4
BITMAP
E000
E000
6000
6000
6E00
7F80
7180
60C0
60C0
60C0
7180
7F80
6E00
6000
6000
F000
F000
ENDCHAR

STARTCHAR ydieresis
ENCODING 255
SWIDTH 563 0
DWIDTH 11 0
BBX 11 16 0 -4
BITMAP
1B00
1B00
0000
FBE0
FBE0
3180
3180
1B00
1B00
0E00
0E00
0400
0C00
0C00
3800
3800
ENDCHAR
ENDFONT
